<mxfile host="Electron" modified="2024-08-12T01:43:07.530Z" agent="Mozilla/5.0 (Windows NT 10.0; Win64; x64) AppleWebKit/537.36 (KHTML, like Gecko) draw.io/24.2.5 Chrome/120.0.6099.109 Electron/28.1.0 Safari/537.36" etag="4ORI4w9pfE7xx26GZ0dn" version="24.2.5" type="device">
  <diagram name="Page-1" id="WhmdJdnP2_PkstWyvd0G">
    <mxGraphModel dx="1098" dy="1198" grid="1" gridSize="10" guides="1" tooltips="1" connect="1" arrows="1" fold="1" page="1" pageScale="1" pageWidth="850" pageHeight="1100" math="0" shadow="0">
      <root>
        <mxCell id="0" />
        <mxCell id="1" parent="0" />
        <mxCell id="4100sUDP72MHZEoSf-wj-8" style="edgeStyle=orthogonalEdgeStyle;rounded=0;orthogonalLoop=1;jettySize=auto;html=1;exitX=1;exitY=0.25;exitDx=0;exitDy=0;entryX=0;entryY=0.25;entryDx=0;entryDy=0;" edge="1" parent="1" source="4100sUDP72MHZEoSf-wj-2" target="4100sUDP72MHZEoSf-wj-3">
          <mxGeometry relative="1" as="geometry" />
        </mxCell>
        <mxCell id="4100sUDP72MHZEoSf-wj-10" style="edgeStyle=orthogonalEdgeStyle;rounded=0;orthogonalLoop=1;jettySize=auto;html=1;exitX=0;exitY=0.75;exitDx=0;exitDy=0;" edge="1" parent="1" source="4100sUDP72MHZEoSf-wj-2" target="4100sUDP72MHZEoSf-wj-4">
          <mxGeometry relative="1" as="geometry">
            <Array as="points">
              <mxPoint x="310" y="435" />
              <mxPoint x="310" y="435" />
            </Array>
          </mxGeometry>
        </mxCell>
        <mxCell id="4100sUDP72MHZEoSf-wj-11" style="edgeStyle=orthogonalEdgeStyle;rounded=0;orthogonalLoop=1;jettySize=auto;html=1;entryX=0;entryY=0.25;entryDx=0;entryDy=0;" edge="1" parent="1" source="4100sUDP72MHZEoSf-wj-4" target="4100sUDP72MHZEoSf-wj-2">
          <mxGeometry relative="1" as="geometry">
            <Array as="points">
              <mxPoint x="310" y="405" />
              <mxPoint x="310" y="405" />
            </Array>
          </mxGeometry>
        </mxCell>
        <mxCell id="4100sUDP72MHZEoSf-wj-2" value="DemoController" style="rounded=0;whiteSpace=wrap;html=1;fillColor=#dae8fc;strokeColor=#6c8ebf;" vertex="1" parent="1">
          <mxGeometry x="430" y="390" width="120" height="60" as="geometry" />
        </mxCell>
        <mxCell id="4100sUDP72MHZEoSf-wj-9" style="edgeStyle=orthogonalEdgeStyle;rounded=0;orthogonalLoop=1;jettySize=auto;html=1;exitX=0;exitY=0.75;exitDx=0;exitDy=0;entryX=1;entryY=0.75;entryDx=0;entryDy=0;" edge="1" parent="1" source="4100sUDP72MHZEoSf-wj-3" target="4100sUDP72MHZEoSf-wj-2">
          <mxGeometry relative="1" as="geometry" />
        </mxCell>
        <mxCell id="4100sUDP72MHZEoSf-wj-3" value="Payment" style="rounded=0;whiteSpace=wrap;html=1;fillColor=#f8cecc;strokeColor=#b85450;" vertex="1" parent="1">
          <mxGeometry x="700" y="390" width="120" height="60" as="geometry" />
        </mxCell>
        <mxCell id="4100sUDP72MHZEoSf-wj-4" value="Client / Web Browser" style="outlineConnect=0;fontColor=#232F3E;gradientColor=none;strokeColor=#232F3E;fillColor=#ffffff;dashed=0;verticalLabelPosition=bottom;verticalAlign=top;align=center;html=1;fontSize=12;fontStyle=0;aspect=fixed;shape=mxgraph.aws4.resourceIcon;resIcon=mxgraph.aws4.client;" vertex="1" parent="1">
          <mxGeometry x="150" y="350" width="130" height="130" as="geometry" />
        </mxCell>
        <mxCell id="4100sUDP72MHZEoSf-wj-7" value="/discount" style="text;html=1;align=center;verticalAlign=middle;resizable=0;points=[];autosize=1;strokeColor=none;fillColor=none;" vertex="1" parent="1">
          <mxGeometry x="320" y="380" width="70" height="30" as="geometry" />
        </mxCell>
        <mxCell id="4100sUDP72MHZEoSf-wj-12" value="getDiscount()" style="text;html=1;align=center;verticalAlign=middle;resizable=0;points=[];autosize=1;strokeColor=none;fillColor=none;" vertex="1" parent="1">
          <mxGeometry x="580" y="380" width="90" height="30" as="geometry" />
        </mxCell>
        <mxCell id="4100sUDP72MHZEoSf-wj-13" value="&quot;10% discount&quot;" style="text;html=1;align=center;verticalAlign=middle;resizable=0;points=[];autosize=1;strokeColor=none;fillColor=none;" vertex="1" parent="1">
          <mxGeometry x="575" y="430" width="100" height="30" as="geometry" />
        </mxCell>
        <mxCell id="4100sUDP72MHZEoSf-wj-15" value="&quot;10% discount&quot;" style="text;html=1;align=center;verticalAlign=middle;resizable=0;points=[];autosize=1;strokeColor=none;fillColor=none;" vertex="1" parent="1">
          <mxGeometry x="305" y="430" width="100" height="30" as="geometry" />
        </mxCell>
      </root>
    </mxGraphModel>
  </diagram>
</mxfile>
